<svg xmlns="http://www.w3.org/2000/svg" width="50" height="50" fill="none" viewBox="0 0 50 50"><path fill="#f7df1e" d="M37.5 0h-25C5.596 0 0 5.596 0 12.5v25C0 44.404 5.596 50 12.5 50h25C44.404 50 50 44.404 50 37.5v-25C50 5.596 44.404 0 37.5 0"/><path fill="#131313" d="M30.462 35.936c1.007 1.645 2.318 2.853 4.635 2.853 1.947 0 3.19-.973 3.19-2.317 0-1.611-1.277-2.182-3.42-3.119l-1.175-.504c-3.39-1.444-5.642-3.254-5.642-7.08 0-3.523 2.685-6.206 6.88-6.206 2.988 0 5.135 1.04 6.683 3.762l-3.659 2.35c-.805-1.445-1.674-2.014-3.023-2.014-1.377 0-2.249.873-2.249 2.013 0 1.41.873 1.98 2.889 2.854l1.175.503c3.992 1.712 6.246 3.457 6.246 7.38 0 4.23-3.323 6.548-7.786 6.548-4.364 0-7.183-2.079-8.562-4.804zm-16.597.407c.738 1.31 1.41 2.417 3.024 2.417 1.543 0 2.517-.604 2.517-2.952V19.83h4.698v16.04c0 4.865-2.852 7.08-7.015 7.08-3.762 0-5.941-1.947-7.049-4.292z"/></svg>